<svg width="800" height="800" viewBox="0 0 800 800" fill="none" xmlns="http://www.w3.org/2000/svg">
<circle cx="400.5" cy="400.5" r="240.538" stroke="black" stroke-width="17.9239"/>
<path fill-rule="evenodd" clip-rule="evenodd" d="M368.354 517.617C378.718 514.294 390.789 513.379 403.268 515.535C435.653 521.129 456.937 556.566 454.34 569.467C451.744 582.367 420.521 608.734 388.135 603.14C371.753 600.311 357.807 592.733 348.565 582.803C342.806 576.615 347.213 567.509 352.804 561.169C353.254 560.659 353.689 560.13 354.11 559.583C359.096 553.098 361.032 545.23 360.144 537.702C359.19 529.618 360.603 520.102 368.354 517.617ZM281.993 479.327C286.15 472.329 293.056 465.633 300.72 468.372C310.971 472.035 321.113 478.648 329.712 487.948C352.023 512.079 355.496 545.152 337.47 561.818C319.445 578.484 286.746 572.432 264.435 548.302C253.148 536.094 246.682 521.599 245.381 508.096C244.571 499.682 253.607 495.132 261.9 493.497C262.566 493.365 263.233 493.21 263.899 493.032C271.8 490.915 278.121 485.845 281.993 479.327ZM210.823 386.751C215.428 379.662 225.332 381.727 232.839 385.612C233.443 385.924 234.06 386.218 234.692 386.493C242.193 389.757 250.298 389.725 257.386 387.036C264.997 384.149 274.571 383.21 278.863 390.127C284.601 399.375 288.418 410.864 289.355 423.494C291.786 456.269 273.911 484.309 249.428 486.126C224.946 487.942 203.128 462.846 200.697 430.071C199.467 413.492 203.434 398.125 210.823 386.751ZM572.005 357.97C587.122 357.97 599.505 369.666 600.603 384.502L600.684 384.498C600.684 384.968 600.679 385.436 600.673 385.901C600.68 386.149 600.684 386.398 600.684 386.648C600.684 387.379 600.656 388.104 600.602 388.821C597.931 461.481 527.93 471.966 506.047 471.966C541.732 458.312 546.792 418.567 544.497 394.773C543.737 392.197 543.328 389.47 543.328 386.648C543.328 370.81 556.167 357.971 572.005 357.97ZM263.009 267.269C271.379 264.771 277.444 273.413 280.309 281.665C280.821 283.137 281.453 284.589 282.211 286.007C285.732 292.599 291.356 297.347 297.813 299.866C305.485 302.859 313.324 308.675 311.868 316.78C310.148 326.352 306.2 336.217 299.977 345.397C281.536 372.6 250.113 383.486 229.793 369.712C209.472 355.937 207.947 322.716 226.388 295.512C236.149 281.114 249.546 271.287 263.009 267.269ZM504.954 262.251C526.679 250.818 556.698 265.127 572.004 294.211C579.282 308.041 581.921 322.722 580.352 335.547C579.563 341.996 572.488 344.792 565.991 344.792C556.133 344.792 547.381 349.529 541.888 356.851C536.948 363.438 529.233 369.437 521.983 365.534C510.789 359.508 500.462 349.164 493.33 335.612C478.025 306.529 483.229 273.684 504.954 262.251ZM332.67 209.385C348.266 205.114 363.682 205.888 376.091 210.598C384.309 213.717 383.989 224.353 381.332 232.731C381.058 233.595 380.82 234.479 380.621 235.382C378.872 243.308 380.421 251.194 384.354 257.607C388.757 264.787 391.544 274.45 385.173 279.957C377.425 286.653 367.511 292.019 356.149 295.131C324.451 303.81 293.498 291.651 287.014 267.973C280.531 244.295 300.972 218.064 332.67 209.385ZM395.219 222.107C406.371 200.236 439.146 194.608 468.424 209.537C481.156 216.028 491.129 225.337 497.419 235.585C501.97 243 495.451 251.306 488.343 256.325C480.821 261.637 476.472 269.769 475.717 278.276C474.943 287.013 471.18 296.938 462.411 297.08C451.416 297.257 439.462 294.562 428.041 288.738C398.762 273.809 384.068 243.978 395.219 222.107Z" fill="#00DFEB"/>
</svg>
